<mxfile host="app.diagrams.net" agent="Mozilla/5.0 (Windows NT 10.0; Win64; x64) AppleWebKit/537.36 (KHTML, like Gecko) Chrome/136.0.0.0 Safari/537.36 Edg/136.0.0.0" version="26.2.15">
  <diagram name="第 1 页" id="3EJtbv37iB2adPKTSykg">
    <mxGraphModel dx="2893" dy="2769" grid="1" gridSize="10" guides="1" tooltips="1" connect="1" arrows="1" fold="1" page="1" pageScale="1" pageWidth="827" pageHeight="1169" math="0" shadow="0">
      <root>
        <mxCell id="0" />
        <mxCell id="1" parent="0" />
        <mxCell id="a7DJOjHJFXQFd17sZ_x1-36" value="数据库" style="whiteSpace=wrap;strokeWidth=2;verticalAlign=top;fontSize=18;" vertex="1" parent="1">
          <mxGeometry x="1340" y="530" width="1360" height="148" as="geometry" />
        </mxCell>
        <mxCell id="a7DJOjHJFXQFd17sZ_x1-37" value="文件系统" style="whiteSpace=wrap;strokeWidth=2;verticalAlign=top;fontSize=18;" vertex="1" parent="1">
          <mxGeometry x="1340" y="300" width="1360" height="124" as="geometry" />
        </mxCell>
        <mxCell id="a7DJOjHJFXQFd17sZ_x1-38" value="核心增强模块" style="whiteSpace=wrap;strokeWidth=2;fontSize=18;" vertex="1" parent="1">
          <mxGeometry x="2112" y="38" width="594" height="124" as="geometry" />
        </mxCell>
        <mxCell id="a7DJOjHJFXQFd17sZ_x1-39" value="后端服务" style="whiteSpace=wrap;strokeWidth=2;verticalAlign=top;fontSize=18;" vertex="1" parent="1">
          <mxGeometry x="1040" y="-38" width="2220" height="288" as="geometry" />
        </mxCell>
        <mxCell id="a7DJOjHJFXQFd17sZ_x1-40" value="前端界面" style="whiteSpace=wrap;strokeWidth=2;verticalAlign=top;fontSize=18;" vertex="1" parent="1">
          <mxGeometry x="1040" y="-290" width="2220" height="188" as="geometry" />
        </mxCell>
        <mxCell id="a7DJOjHJFXQFd17sZ_x1-71" style="edgeStyle=orthogonalEdgeStyle;rounded=0;orthogonalLoop=1;jettySize=auto;html=1;exitX=0.5;exitY=1;exitDx=0;exitDy=0;entryX=0.5;entryY=0;entryDx=0;entryDy=0;fontSize=18;" edge="1" parent="1" source="a7DJOjHJFXQFd17sZ_x1-41" target="a7DJOjHJFXQFd17sZ_x1-44">
          <mxGeometry relative="1" as="geometry" />
        </mxCell>
        <mxCell id="a7DJOjHJFXQFd17sZ_x1-41" value="接收图像/参数并发送处理请求" style="rounded=1;arcSize=20;strokeWidth=2;fontSize=18;" vertex="1" parent="1">
          <mxGeometry x="1065" y="-235" width="260" height="78" as="geometry" />
        </mxCell>
        <mxCell id="a7DJOjHJFXQFd17sZ_x1-42" value="展示增强前后对比图" style="rounded=1;arcSize=20;strokeWidth=2;fontSize=18;" vertex="1" parent="1">
          <mxGeometry x="2700" y="-235" width="260" height="78" as="geometry" />
        </mxCell>
        <mxCell id="a7DJOjHJFXQFd17sZ_x1-43" value="反馈处理错误信息" style="rounded=1;arcSize=20;strokeWidth=2;fontSize=18;" vertex="1" parent="1">
          <mxGeometry x="3071" y="-235" width="158" height="78" as="geometry" />
        </mxCell>
        <mxCell id="a7DJOjHJFXQFd17sZ_x1-44" value="处理图像增强请求" style="whiteSpace=wrap;strokeWidth=2;fontSize=18;" vertex="1" parent="1">
          <mxGeometry x="1065" y="74" width="260" height="78" as="geometry" />
        </mxCell>
        <mxCell id="a7DJOjHJFXQFd17sZ_x1-107" style="edgeStyle=orthogonalEdgeStyle;rounded=0;orthogonalLoop=1;jettySize=auto;html=1;exitX=0.5;exitY=1;exitDx=0;exitDy=0;fontSize=18;" edge="1" parent="1" source="a7DJOjHJFXQFd17sZ_x1-45" target="a7DJOjHJFXQFd17sZ_x1-52">
          <mxGeometry relative="1" as="geometry" />
        </mxCell>
        <mxCell id="a7DJOjHJFXQFd17sZ_x1-120" value="验证通过" style="edgeLabel;html=1;align=center;verticalAlign=middle;resizable=0;points=[];fontSize=18;" vertex="1" connectable="0" parent="a7DJOjHJFXQFd17sZ_x1-107">
          <mxGeometry x="-0.0756" y="-4" relative="1" as="geometry">
            <mxPoint as="offset" />
          </mxGeometry>
        </mxCell>
        <mxCell id="a7DJOjHJFXQFd17sZ_x1-122" style="edgeStyle=orthogonalEdgeStyle;rounded=0;orthogonalLoop=1;jettySize=auto;html=1;exitX=1;exitY=1;exitDx=0;exitDy=0;entryX=0.25;entryY=1;entryDx=0;entryDy=0;fontSize=18;" edge="1" parent="1" source="a7DJOjHJFXQFd17sZ_x1-45" target="a7DJOjHJFXQFd17sZ_x1-49">
          <mxGeometry relative="1" as="geometry" />
        </mxCell>
        <mxCell id="a7DJOjHJFXQFd17sZ_x1-124" value="验证失败" style="edgeLabel;html=1;align=center;verticalAlign=middle;resizable=0;points=[];fontSize=18;" vertex="1" connectable="0" parent="a7DJOjHJFXQFd17sZ_x1-122">
          <mxGeometry x="-0.0178" y="7" relative="1" as="geometry">
            <mxPoint y="1" as="offset" />
          </mxGeometry>
        </mxCell>
        <mxCell id="a7DJOjHJFXQFd17sZ_x1-45" value="验证图像文件与参数?" style="rhombus;strokeWidth=2;whiteSpace=wrap;fontSize=18;" vertex="1" parent="1">
          <mxGeometry x="1375" y="12" width="204" height="204" as="geometry" />
        </mxCell>
        <mxCell id="a7DJOjHJFXQFd17sZ_x1-113" style="edgeStyle=orthogonalEdgeStyle;rounded=0;orthogonalLoop=1;jettySize=auto;html=1;exitX=1;exitY=0.5;exitDx=0;exitDy=0;entryX=0;entryY=0.5;entryDx=0;entryDy=0;fontSize=18;" edge="1" parent="1" source="a7DJOjHJFXQFd17sZ_x1-46" target="a7DJOjHJFXQFd17sZ_x1-50">
          <mxGeometry relative="1" as="geometry" />
        </mxCell>
        <mxCell id="a7DJOjHJFXQFd17sZ_x1-46" value="调用核心增强服务 (processing.py)" style="whiteSpace=wrap;strokeWidth=2;fontSize=18;" vertex="1" parent="1">
          <mxGeometry x="1777" y="62" width="260" height="78" as="geometry" />
        </mxCell>
        <mxCell id="a7DJOjHJFXQFd17sZ_x1-118" style="edgeStyle=orthogonalEdgeStyle;rounded=0;orthogonalLoop=1;jettySize=auto;html=1;exitX=0.5;exitY=0;exitDx=0;exitDy=0;entryX=0.5;entryY=1;entryDx=0;entryDy=0;fontSize=18;" edge="1" parent="1" source="a7DJOjHJFXQFd17sZ_x1-48" target="a7DJOjHJFXQFd17sZ_x1-42">
          <mxGeometry relative="1" as="geometry" />
        </mxCell>
        <mxCell id="a7DJOjHJFXQFd17sZ_x1-48" value="生成成功响应 (含图像URL)" style="whiteSpace=wrap;strokeWidth=2;fontSize=18;" vertex="1" parent="1">
          <mxGeometry x="2706" y="73" width="248" height="54" as="geometry" />
        </mxCell>
        <mxCell id="a7DJOjHJFXQFd17sZ_x1-119" style="edgeStyle=orthogonalEdgeStyle;rounded=0;orthogonalLoop=1;jettySize=auto;html=1;exitX=0.5;exitY=0;exitDx=0;exitDy=0;fontSize=18;" edge="1" parent="1" source="a7DJOjHJFXQFd17sZ_x1-49" target="a7DJOjHJFXQFd17sZ_x1-43">
          <mxGeometry relative="1" as="geometry" />
        </mxCell>
        <mxCell id="a7DJOjHJFXQFd17sZ_x1-49" value="生成处理失败响应" style="whiteSpace=wrap;strokeWidth=2;fontSize=18;" vertex="1" parent="1">
          <mxGeometry x="3056" y="79" width="188" height="54" as="geometry" />
        </mxCell>
        <mxCell id="a7DJOjHJFXQFd17sZ_x1-114" style="edgeStyle=orthogonalEdgeStyle;rounded=0;orthogonalLoop=1;jettySize=auto;html=1;exitX=1;exitY=0.5;exitDx=0;exitDy=0;entryX=0;entryY=0.5;entryDx=0;entryDy=0;fontSize=18;" edge="1" parent="1" source="a7DJOjHJFXQFd17sZ_x1-50" target="a7DJOjHJFXQFd17sZ_x1-51">
          <mxGeometry relative="1" as="geometry" />
        </mxCell>
        <mxCell id="a7DJOjHJFXQFd17sZ_x1-50" value="加载核心模型并执行增强" style="rounded=1;arcSize=20;strokeWidth=2;fontSize=18;" vertex="1" parent="1">
          <mxGeometry x="2137" y="73" width="206" height="54" as="geometry" />
        </mxCell>
        <mxCell id="a7DJOjHJFXQFd17sZ_x1-111" style="edgeStyle=orthogonalEdgeStyle;rounded=0;orthogonalLoop=1;jettySize=auto;html=1;exitX=0.5;exitY=1;exitDx=0;exitDy=0;entryX=0.5;entryY=0;entryDx=0;entryDy=0;fontSize=18;" edge="1" parent="1" source="a7DJOjHJFXQFd17sZ_x1-51" target="a7DJOjHJFXQFd17sZ_x1-53">
          <mxGeometry relative="1" as="geometry" />
        </mxCell>
        <mxCell id="a7DJOjHJFXQFd17sZ_x1-51" value="返回增强后的图像数据" style="whiteSpace=wrap;strokeWidth=2;fontSize=18;" vertex="1" parent="1">
          <mxGeometry x="2430" y="73" width="220" height="54" as="geometry" />
        </mxCell>
        <mxCell id="a7DJOjHJFXQFd17sZ_x1-108" style="edgeStyle=orthogonalEdgeStyle;rounded=0;orthogonalLoop=1;jettySize=auto;html=1;exitX=0.5;exitY=1;exitDx=0;exitDy=0;fontSize=18;" edge="1" parent="1" source="a7DJOjHJFXQFd17sZ_x1-52" target="a7DJOjHJFXQFd17sZ_x1-54">
          <mxGeometry relative="1" as="geometry" />
        </mxCell>
        <mxCell id="a7DJOjHJFXQFd17sZ_x1-52" value="保存原始图像至 uploads/" style="whiteSpace=wrap;strokeWidth=2;fontSize=18;" vertex="1" parent="1">
          <mxGeometry x="1357" y="335" width="240" height="54" as="geometry" />
        </mxCell>
        <mxCell id="a7DJOjHJFXQFd17sZ_x1-112" style="edgeStyle=orthogonalEdgeStyle;rounded=0;orthogonalLoop=1;jettySize=auto;html=1;exitX=0.5;exitY=1;exitDx=0;exitDy=0;entryX=0.5;entryY=0;entryDx=0;entryDy=0;fontSize=18;" edge="1" parent="1" source="a7DJOjHJFXQFd17sZ_x1-53" target="a7DJOjHJFXQFd17sZ_x1-55">
          <mxGeometry relative="1" as="geometry" />
        </mxCell>
        <mxCell id="a7DJOjHJFXQFd17sZ_x1-53" value="保存增强图像至 outputs/" style="whiteSpace=wrap;strokeWidth=2;fontSize=18;" vertex="1" parent="1">
          <mxGeometry x="2420.5" y="335" width="239" height="54" as="geometry" />
        </mxCell>
        <mxCell id="a7DJOjHJFXQFd17sZ_x1-117" style="edgeStyle=orthogonalEdgeStyle;rounded=0;orthogonalLoop=1;jettySize=auto;html=1;exitX=1;exitY=0.5;exitDx=0;exitDy=0;curved=1;fontSize=18;" edge="1" parent="1" source="a7DJOjHJFXQFd17sZ_x1-54" target="a7DJOjHJFXQFd17sZ_x1-46">
          <mxGeometry relative="1" as="geometry" />
        </mxCell>
        <mxCell id="a7DJOjHJFXQFd17sZ_x1-54" value="创建项目记录" style="whiteSpace=wrap;strokeWidth=2;fontSize=18;" vertex="1" parent="1">
          <mxGeometry x="1357" y="565" width="240" height="78" as="geometry" />
        </mxCell>
        <mxCell id="a7DJOjHJFXQFd17sZ_x1-115" style="edgeStyle=orthogonalEdgeStyle;rounded=0;orthogonalLoop=1;jettySize=auto;html=1;exitX=1;exitY=0.25;exitDx=0;exitDy=0;entryX=0.5;entryY=1;entryDx=0;entryDy=0;fontSize=18;" edge="1" parent="1" source="a7DJOjHJFXQFd17sZ_x1-55" target="a7DJOjHJFXQFd17sZ_x1-48">
          <mxGeometry relative="1" as="geometry" />
        </mxCell>
        <mxCell id="a7DJOjHJFXQFd17sZ_x1-125" value="成功" style="edgeLabel;html=1;align=center;verticalAlign=middle;resizable=0;points=[];fontSize=18;" vertex="1" connectable="0" parent="a7DJOjHJFXQFd17sZ_x1-115">
          <mxGeometry x="0.3652" y="-5" relative="1" as="geometry">
            <mxPoint as="offset" />
          </mxGeometry>
        </mxCell>
        <mxCell id="a7DJOjHJFXQFd17sZ_x1-116" style="edgeStyle=orthogonalEdgeStyle;rounded=0;orthogonalLoop=1;jettySize=auto;html=1;exitX=1;exitY=0.75;exitDx=0;exitDy=0;entryX=0.5;entryY=1;entryDx=0;entryDy=0;fontSize=18;" edge="1" parent="1" source="a7DJOjHJFXQFd17sZ_x1-55" target="a7DJOjHJFXQFd17sZ_x1-49">
          <mxGeometry relative="1" as="geometry" />
        </mxCell>
        <mxCell id="a7DJOjHJFXQFd17sZ_x1-127" value="失败" style="edgeLabel;html=1;align=center;verticalAlign=middle;resizable=0;points=[];fontSize=18;" vertex="1" connectable="0" parent="a7DJOjHJFXQFd17sZ_x1-116">
          <mxGeometry x="0.5849" y="-3" relative="1" as="geometry">
            <mxPoint x="-3" y="-13" as="offset" />
          </mxGeometry>
        </mxCell>
        <mxCell id="a7DJOjHJFXQFd17sZ_x1-55" value="更新项目记录" style="whiteSpace=wrap;strokeWidth=2;fontSize=18;" vertex="1" parent="1">
          <mxGeometry x="2410" y="565" width="260" height="78" as="geometry" />
        </mxCell>
        <mxCell id="a7DJOjHJFXQFd17sZ_x1-57" value="" style="curved=1;startArrow=none;endArrow=block;exitX=1;exitY=0.51;entryX=0;entryY=0.5;rounded=0;fontSize=18;" edge="1" parent="1" source="a7DJOjHJFXQFd17sZ_x1-44" target="a7DJOjHJFXQFd17sZ_x1-45">
          <mxGeometry relative="1" as="geometry">
            <Array as="points" />
          </mxGeometry>
        </mxCell>
        <mxCell id="a7DJOjHJFXQFd17sZ_x1-72" value="数据库" style="whiteSpace=wrap;strokeWidth=2;fontSize=18;" vertex="1" parent="1">
          <mxGeometry x="2040" y="1220" width="2158" height="148" as="geometry" />
        </mxCell>
        <mxCell id="a7DJOjHJFXQFd17sZ_x1-73" value="文件系统" style="whiteSpace=wrap;strokeWidth=2;fontSize=18;" vertex="1" parent="1">
          <mxGeometry x="1725" y="1388" width="2138" height="124" as="geometry" />
        </mxCell>
        <mxCell id="a7DJOjHJFXQFd17sZ_x1-74" value="核心增强模块" style="whiteSpace=wrap;strokeWidth=2;fontSize=18;" vertex="1" parent="1">
          <mxGeometry x="2685" y="1532" width="594" height="124" as="geometry" />
        </mxCell>
        <mxCell id="a7DJOjHJFXQFd17sZ_x1-75" value="后端服务" style="whiteSpace=wrap;strokeWidth=2;fontSize=18;" vertex="1" parent="1">
          <mxGeometry x="1068" y="1676" width="3490" height="288" as="geometry" />
        </mxCell>
        <mxCell id="a7DJOjHJFXQFd17sZ_x1-76" value="前端界面" style="whiteSpace=wrap;strokeWidth=2;fontSize=18;" vertex="1" parent="1">
          <mxGeometry x="763" y="1984" width="4044" height="228" as="geometry" />
        </mxCell>
        <mxCell id="a7DJOjHJFXQFd17sZ_x1-77" value="接收图像/参数并发送处理请求" style="rounded=1;arcSize=20;strokeWidth=2;fontSize=18;" vertex="1" parent="1">
          <mxGeometry x="788" y="2059" width="230" height="78" as="geometry" />
        </mxCell>
        <mxCell id="a7DJOjHJFXQFd17sZ_x1-78" value="展示增强前后对比图" style="rounded=1;arcSize=20;strokeWidth=2;fontSize=18;" vertex="1" parent="1">
          <mxGeometry x="4608" y="2019" width="174" height="54" as="geometry" />
        </mxCell>
        <mxCell id="a7DJOjHJFXQFd17sZ_x1-79" value="反馈处理错误信息" style="rounded=1;arcSize=20;strokeWidth=2;fontSize=18;" vertex="1" parent="1">
          <mxGeometry x="4616" y="2123" width="158" height="54" as="geometry" />
        </mxCell>
        <mxCell id="a7DJOjHJFXQFd17sZ_x1-80" value="处理图像增强请求 (/process_image)" style="whiteSpace=wrap;strokeWidth=2;fontSize=18;" vertex="1" parent="1">
          <mxGeometry x="1093" y="1788" width="260" height="78" as="geometry" />
        </mxCell>
        <mxCell id="a7DJOjHJFXQFd17sZ_x1-81" value="验证图像文件与参数?" style="rhombus;strokeWidth=2;whiteSpace=wrap;fontSize=18;" vertex="1" parent="1">
          <mxGeometry x="1403" y="1726" width="204" height="204" as="geometry" />
        </mxCell>
        <mxCell id="a7DJOjHJFXQFd17sZ_x1-82" value="调用核心增强服务 (processing.py)" style="whiteSpace=wrap;strokeWidth=2;fontSize=18;" vertex="1" parent="1">
          <mxGeometry x="2375" y="1758" width="260" height="78" as="geometry" />
        </mxCell>
        <mxCell id="a7DJOjHJFXQFd17sZ_x1-83" value="接收增强后的图像数据" style="whiteSpace=wrap;strokeWidth=2;fontSize=18;" vertex="1" parent="1">
          <mxGeometry x="3329" y="1770" width="220" height="54" as="geometry" />
        </mxCell>
        <mxCell id="a7DJOjHJFXQFd17sZ_x1-84" value="生成成功响应 (含图像URL)" style="whiteSpace=wrap;strokeWidth=2;fontSize=18;" vertex="1" parent="1">
          <mxGeometry x="4284" y="1734" width="248" height="54" as="geometry" />
        </mxCell>
        <mxCell id="a7DJOjHJFXQFd17sZ_x1-85" value="生成处理失败响应" style="whiteSpace=wrap;strokeWidth=2;fontSize=18;" vertex="1" parent="1">
          <mxGeometry x="4314" y="1838" width="188" height="54" as="geometry" />
        </mxCell>
        <mxCell id="a7DJOjHJFXQFd17sZ_x1-86" value="加载核心模型并执行增强" style="rounded=1;arcSize=20;strokeWidth=2;fontSize=18;" vertex="1" parent="1">
          <mxGeometry x="2710" y="1567" width="206" height="54" as="geometry" />
        </mxCell>
        <mxCell id="a7DJOjHJFXQFd17sZ_x1-87" value="返回增强后的图像数据" style="whiteSpace=wrap;strokeWidth=2;fontSize=18;" vertex="1" parent="1">
          <mxGeometry x="3034" y="1567" width="220" height="54" as="geometry" />
        </mxCell>
        <mxCell id="a7DJOjHJFXQFd17sZ_x1-88" value="保存原始图像至 uploads/" style="whiteSpace=wrap;strokeWidth=2;fontSize=18;" vertex="1" parent="1">
          <mxGeometry x="1750" y="1423" width="240" height="54" as="geometry" />
        </mxCell>
        <mxCell id="a7DJOjHJFXQFd17sZ_x1-89" value="保存增强图像至 outputs/" style="whiteSpace=wrap;strokeWidth=2;fontSize=18;" vertex="1" parent="1">
          <mxGeometry x="3599" y="1423" width="239" height="54" as="geometry" />
        </mxCell>
        <mxCell id="a7DJOjHJFXQFd17sZ_x1-90" value="创建项目记录 (状态: pending)" style="whiteSpace=wrap;strokeWidth=2;fontSize=18;" vertex="1" parent="1">
          <mxGeometry x="2065" y="1255" width="260" height="78" as="geometry" />
        </mxCell>
        <mxCell id="a7DJOjHJFXQFd17sZ_x1-91" value="更新项目记录 (状态: completed/failed)" style="whiteSpace=wrap;strokeWidth=2;fontSize=18;" vertex="1" parent="1">
          <mxGeometry x="3913" y="1255" width="260" height="78" as="geometry" />
        </mxCell>
        <mxCell id="a7DJOjHJFXQFd17sZ_x1-92" value="" style="curved=1;startArrow=none;endArrow=block;exitX=1;exitY=0.51;entryX=0.41;entryY=1.01;rounded=0;fontSize=18;" edge="1" parent="1" source="a7DJOjHJFXQFd17sZ_x1-77" target="a7DJOjHJFXQFd17sZ_x1-80">
          <mxGeometry relative="1" as="geometry">
            <Array as="points">
              <mxPoint x="1068" y="2098" />
            </Array>
          </mxGeometry>
        </mxCell>
        <mxCell id="a7DJOjHJFXQFd17sZ_x1-93" value="" style="curved=1;startArrow=none;endArrow=block;exitX=1;exitY=0.51;entryX=0;entryY=0.5;rounded=0;fontSize=18;" edge="1" parent="1" source="a7DJOjHJFXQFd17sZ_x1-80" target="a7DJOjHJFXQFd17sZ_x1-81">
          <mxGeometry relative="1" as="geometry">
            <Array as="points" />
          </mxGeometry>
        </mxCell>
        <mxCell id="a7DJOjHJFXQFd17sZ_x1-94" value="验证通过" style="curved=1;startArrow=none;endArrow=block;exitX=1;exitY=0.29;entryX=0.45;entryY=1;rounded=0;fontSize=18;" edge="1" parent="1" source="a7DJOjHJFXQFd17sZ_x1-81" target="a7DJOjHJFXQFd17sZ_x1-88">
          <mxGeometry relative="1" as="geometry">
            <Array as="points">
              <mxPoint x="1666" y="1760" />
              <mxPoint x="1725" y="1760" />
            </Array>
          </mxGeometry>
        </mxCell>
        <mxCell id="a7DJOjHJFXQFd17sZ_x1-95" value="" style="curved=1;startArrow=none;endArrow=block;exitX=1;exitY=0.5;entryX=0.35;entryY=1;rounded=0;fontSize=18;" edge="1" parent="1" source="a7DJOjHJFXQFd17sZ_x1-88" target="a7DJOjHJFXQFd17sZ_x1-90">
          <mxGeometry relative="1" as="geometry">
            <Array as="points">
              <mxPoint x="2040" y="1450" />
            </Array>
          </mxGeometry>
        </mxCell>
        <mxCell id="a7DJOjHJFXQFd17sZ_x1-96" value="" style="curved=1;startArrow=none;endArrow=block;exitX=1;exitY=0.5;entryX=0.45;entryY=0;rounded=0;fontSize=18;" edge="1" parent="1" source="a7DJOjHJFXQFd17sZ_x1-90" target="a7DJOjHJFXQFd17sZ_x1-82">
          <mxGeometry relative="1" as="geometry">
            <Array as="points">
              <mxPoint x="2350" y="1294" />
            </Array>
          </mxGeometry>
        </mxCell>
        <mxCell id="a7DJOjHJFXQFd17sZ_x1-97" value="" style="curved=1;startArrow=none;endArrow=block;exitX=1;exitY=0.5;entryX=0.42;entryY=1;rounded=0;fontSize=18;" edge="1" parent="1" source="a7DJOjHJFXQFd17sZ_x1-82" target="a7DJOjHJFXQFd17sZ_x1-86">
          <mxGeometry relative="1" as="geometry">
            <Array as="points">
              <mxPoint x="2685" y="1797" />
            </Array>
          </mxGeometry>
        </mxCell>
        <mxCell id="a7DJOjHJFXQFd17sZ_x1-98" value="" style="curved=1;startArrow=none;endArrow=block;exitX=1;exitY=0.5;entryX=0;entryY=0.5;rounded=0;fontSize=18;" edge="1" parent="1" source="a7DJOjHJFXQFd17sZ_x1-86" target="a7DJOjHJFXQFd17sZ_x1-87">
          <mxGeometry relative="1" as="geometry">
            <Array as="points" />
          </mxGeometry>
        </mxCell>
        <mxCell id="a7DJOjHJFXQFd17sZ_x1-99" value="" style="curved=1;startArrow=none;endArrow=block;exitX=1;exitY=0.5;entryX=0;entryY=0.51;rounded=0;fontSize=18;" edge="1" parent="1" source="a7DJOjHJFXQFd17sZ_x1-87" target="a7DJOjHJFXQFd17sZ_x1-83">
          <mxGeometry relative="1" as="geometry">
            <Array as="points">
              <mxPoint x="3279" y="1594" />
              <mxPoint x="3304" y="1797" />
            </Array>
          </mxGeometry>
        </mxCell>
        <mxCell id="a7DJOjHJFXQFd17sZ_x1-100" value="" style="curved=1;startArrow=none;endArrow=block;exitX=1;exitY=0.51;entryX=0.45;entryY=1;rounded=0;fontSize=18;" edge="1" parent="1" source="a7DJOjHJFXQFd17sZ_x1-83" target="a7DJOjHJFXQFd17sZ_x1-89">
          <mxGeometry relative="1" as="geometry">
            <Array as="points">
              <mxPoint x="3574" y="1797" />
            </Array>
          </mxGeometry>
        </mxCell>
        <mxCell id="a7DJOjHJFXQFd17sZ_x1-101" value="" style="curved=1;startArrow=none;endArrow=block;exitX=1;exitY=0.5;entryX=0;entryY=0.5;rounded=0;fontSize=18;" edge="1" parent="1" source="a7DJOjHJFXQFd17sZ_x1-89" target="a7DJOjHJFXQFd17sZ_x1-91">
          <mxGeometry relative="1" as="geometry">
            <Array as="points">
              <mxPoint x="3863" y="1450" />
              <mxPoint x="3888" y="1294" />
            </Array>
          </mxGeometry>
        </mxCell>
        <mxCell id="a7DJOjHJFXQFd17sZ_x1-102" value="成功" style="curved=1;startArrow=none;endArrow=block;exitX=1;exitY=0.32;entryX=0;entryY=0.49;rounded=0;fontSize=18;" edge="1" parent="1" source="a7DJOjHJFXQFd17sZ_x1-91" target="a7DJOjHJFXQFd17sZ_x1-84">
          <mxGeometry relative="1" as="geometry">
            <Array as="points">
              <mxPoint x="4198" y="1277" />
              <mxPoint x="4241" y="1761" />
            </Array>
          </mxGeometry>
        </mxCell>
        <mxCell id="a7DJOjHJFXQFd17sZ_x1-103" value="失败" style="curved=1;startArrow=none;endArrow=block;exitX=1;exitY=0.79;entryX=0;entryY=0.17;rounded=0;fontSize=18;" edge="1" parent="1" source="a7DJOjHJFXQFd17sZ_x1-91" target="a7DJOjHJFXQFd17sZ_x1-85">
          <mxGeometry relative="1" as="geometry">
            <Array as="points">
              <mxPoint x="4198" y="1321" />
              <mxPoint x="4241" y="1834" />
            </Array>
          </mxGeometry>
        </mxCell>
        <mxCell id="a7DJOjHJFXQFd17sZ_x1-104" value="" style="curved=1;startArrow=none;endArrow=block;exitX=1;exitY=0.49;entryX=0;entryY=0.51;rounded=0;fontSize=18;" edge="1" parent="1" source="a7DJOjHJFXQFd17sZ_x1-84" target="a7DJOjHJFXQFd17sZ_x1-78">
          <mxGeometry relative="1" as="geometry">
            <Array as="points">
              <mxPoint x="4558" y="1761" />
              <mxPoint x="4583" y="2046" />
            </Array>
          </mxGeometry>
        </mxCell>
        <mxCell id="a7DJOjHJFXQFd17sZ_x1-105" value="验证失败" style="curved=1;startArrow=none;endArrow=block;exitX=1;exitY=0.66;entryX=0;entryY=0.66;rounded=0;fontSize=18;" edge="1" parent="1" source="a7DJOjHJFXQFd17sZ_x1-81" target="a7DJOjHJFXQFd17sZ_x1-85">
          <mxGeometry relative="1" as="geometry">
            <Array as="points">
              <mxPoint x="1666" y="1880" />
              <mxPoint x="4241" y="1880" />
            </Array>
          </mxGeometry>
        </mxCell>
        <mxCell id="a7DJOjHJFXQFd17sZ_x1-106" value="" style="curved=1;startArrow=none;endArrow=block;exitX=1;exitY=0.49;entryX=0;entryY=0.51;rounded=0;fontSize=18;" edge="1" parent="1" source="a7DJOjHJFXQFd17sZ_x1-85" target="a7DJOjHJFXQFd17sZ_x1-79">
          <mxGeometry relative="1" as="geometry">
            <Array as="points">
              <mxPoint x="4558" y="1865" />
              <mxPoint x="4583" y="2150" />
            </Array>
          </mxGeometry>
        </mxCell>
      </root>
    </mxGraphModel>
  </diagram>
</mxfile>
